<?xml version="1.0" standalone="no"?>
<!DOCTYPE svg PUBLIC "-//W3C//DTD SVG 20010904//EN"
 "http://www.w3.org/TR/2001/REC-SVG-20010904/DTD/svg10.dtd">
<svg version="1.0" xmlns="http://www.w3.org/2000/svg"
 width="2048.000000pt" height="2048.000000pt" viewBox="0 0 2048.000000 2048.000000"
 preserveAspectRatio="xMidYMid meet">
<metadata>
Created by potrace 1.14, written by Peter Selinger 2001-2017
</metadata>
<g transform="translate(0.000000,2048.000000) scale(0.100000,-0.100000)"
fill="#000000" stroke="none">
<path d="M5120 18019 c-503 -36 -979 -257 -1340 -619 -351 -353 -567 -818
-609 -1315 -15 -167 -15 -11523 0 -11690 36 -419 200 -824 467 -1156 83 -104
291 -302 391 -373 252 -180 510 -297 793 -360 238 -52 189 -51 2028 -51 1931
0 1769 -6 1940 77 69 34 102 59 175 133 74 73 99 106 133 175 23 47 49 117 58
157 l16 72 -57 137 c-55 131 -155 422 -155 449 0 23 -92 93 -175 135 -162 80
-3 74 -1930 80 l-1720 5 -65 23 c-239 86 -403 259 -472 497 l-23 80 0 5765 0
5765 23 78 c61 212 187 364 377 457 154 76 -75 70 2737 70 l2528 0 2 -1827 c3
-2050 -4 -1862 78 -2029 65 -133 204 -268 337 -325 133 -58 -28 -53 1986 -56
l1847 -3 0 -391 c0 -453 4 -490 78 -639 38 -79 60 -109 131 -181 72 -71 102
-93 181 -131 210 -103 420 -104 629 -1 79 38 110 61 182 132 72 72 94 101 133
181 79 161 76 113 76 1200 0 1039 0 1026 -53 1157 -14 34 -42 88 -63 120 -25
39 -687 709 -1988 2012 -1073 1074 -1984 1981 -2024 2016 -84 73 -176 124
-282 157 l-75 23 -3090 1 c-1699 1 -3142 -2 -3205 -7z m7635 -3149 l1090
-1090 -1098 0 -1097 0 0 1090 c0 600 3 1090 8 1090 4 0 498 -490 1097 -1090z"/>
<path d="M12141 9519 c-1063 -111 -1892 -1019 -1895 -2074 0 -173 12 -233 74
-354 74 -145 170 -241 316 -314 105 -53 181 -70 309 -71 190 0 344 59 478 184
147 137 211 277 228 493 11 149 12 154 46 259 51 161 190 320 346 396 107 53
180 71 335 82 70 5 152 17 182 26 183 54 350 195 433 365 103 209 102 419 -1
629 -38 79 -60 109 -131 181 -180 179 -378 233 -720 198z"/>
<path d="M15045 9514 c-38 -8 -113 -36 -165 -61 -79 -39 -109 -61 -181 -132
-71 -72 -93 -102 -131 -181 -103 -210 -104 -420 -1 -629 83 -170 250 -311 433
-365 30 -9 112 -21 182 -26 155 -11 228 -29 335 -82 156 -76 295 -235 346
-396 34 -105 35 -110 46 -259 17 -216 81 -356 228 -493 134 -125 288 -184 478
-184 128 1 204 18 309 71 146 73 242 169 316 314 62 121 74 181 74 354 -4 884
-588 1685 -1439 1974 -276 93 -639 135 -830 95z"/>
<path d="M10790 5264 c-99 -21 -234 -92 -315 -166 -121 -111 -193 -242 -222
-408 -14 -72 -14 -110 -4 -250 36 -525 246 -993 611 -1360 368 -370 840 -584
1362 -619 266 -18 408 18 576 144 109 82 188 195 238 340 25 72 28 93 28 215
0 122 -3 143 -28 215 -68 196 -191 335 -371 421 -94 45 -163 61 -292 69 -142
9 -221 27 -318 75 -151 73 -253 176 -326 325 -51 105 -67 173 -78 330 -11 145
-27 210 -77 305 -148 284 -468 432 -784 364z"/>
<path d="M16445 5261 c-197 -48 -364 -180 -459 -361 -50 -95 -66 -160 -77
-305 -11 -149 -35 -247 -83 -343 -72 -140 -176 -241 -321 -312 -97 -48 -176
-66 -318 -75 -129 -8 -198 -24 -292 -69 -180 -86 -303 -225 -371 -421 -25 -72
-28 -93 -28 -215 0 -122 3 -143 28 -215 78 -226 239 -386 462 -459 206 -67
652 -17 978 111 671 263 1167 851 1310 1553 15 69 31 199 37 290 13 182 3 277
-41 393 -32 84 -111 197 -187 267 -80 73 -216 144 -318 165 -93 19 -233 18
-320 -4z"/>
</g>
</svg>
